<?xml version="1.0" standalone="no"?>
<!DOCTYPE svg PUBLIC "-//W3C//DTD SVG 20010904//EN"
 "http://www.w3.org/TR/2001/REC-SVG-20010904/DTD/svg10.dtd">
<svg version="1.0" xmlns="http://www.w3.org/2000/svg"
 width="256.000000pt" height="256.000000pt" viewBox="0 0 256.000000 256.000000"
 preserveAspectRatio="xMidYMid meet">
<metadata>
Created by potrace 1.14, written by Peter Selinger 2001-2017
</metadata>
<g transform="translate(0.000000,256.000000) scale(0.100000,-0.100000)"
fill="#000000" stroke="none">
<path d="M1080 2543 c-52 -8 -142 -30 -199 -49 -806 -269 -1135 -1221 -666
-1925 159 -239 386 -410 669 -504 586 -195 1245 73 1529 622 193 375 193 811
0 1186 -249 482 -789 754 -1333 670z m353 -604 c31 -12 81 -42 113 -68 104
-85 154 -201 154 -358 l0 -83 45 0 45 0 0 -420 0 -420 -510 0 -510 0 0 420 0
420 45 0 45 0 0 75 c0 146 38 249 122 335 53 54 160 113 223 123 57 10 172 -2
228 -24z"/>
<path d="M1209 1767 c-57 -21 -97 -54 -126 -105 -23 -39 -28 -60 -31 -139 l-4
-93 232 0 232 0 -4 94 c-3 83 -7 100 -34 142 -55 90 -174 135 -265 101z"/>
<path d="M1235 1181 c-73 -32 -90 -135 -31 -190 l24 -23 -19 -69 c-10 -38 -19
-73 -19 -79 0 -6 36 -10 90 -10 66 0 90 3 90 13 -1 6 -9 41 -19 77 l-19 65 24
26 c48 51 48 123 0 168 -26 25 -89 36 -121 22z"/>
</g>
</svg>
